<svg xmlns="http://www.w3.org/2000/svg" width="256" height="256" viewBox="0 0 256 256" fill="none">
  <circle cx="128" cy="128" r="116" fill="#ece8ff"/>
  <path d="M84 122v32c0 12.2 9.8 22 22 22h28" stroke="#3820b6" stroke-width="14" stroke-linecap="round" stroke-linejoin="round"/>
  <rect x="46" y="46" width="76" height="76" rx="20" fill="#4d35d8"/>
  <rect x="134" y="134" width="76" height="76" rx="20" fill="#4d35d8"/>
  <g transform="translate(55 55) scale(2.4166667)" stroke="#fff" stroke-width="2.05" stroke-linecap="round" stroke-linejoin="round">
    <path d="m12.296 3.464 3.02 3.956"/>
    <path d="M20.2 6 3 11l-.9-2.4c-.3-1.1.3-2.2 1.3-2.5l13.5-4c1.1-.3 2.2.3 2.5 1.3z"/>
    <path d="M3 11h18v8a2 2 0 0 1-2 2H5a2 2 0 0 1-2-2z"/>
    <path d="m6.18 5.276 3.1 3.899"/>
  </g>
  <g transform="translate(143 143) scale(2.4166667)" stroke="#fff" stroke-width="2.05" stroke-linecap="round" stroke-linejoin="round">
    <path d="m15 19 2 2 4-4"/>
    <path d="M15 3v5a1 1 0 0 0 1 1h5"/>
    <path d="M21 13V9a2.4 2.4 0 0 0-.706-1.706l-3.588-3.588A2.4 2.4 0 0 0 15 3H5a2 2 0 0 0-2 2v14a2 2 0 0 0 2 2h6.5"/>
  </g>
</svg>
