<svg xmlns="http://www.w3.org/2000/svg" width="256" height="256" viewBox="0 0 256 256" fill="none">
  <defs>
    <linearGradient id="nodeA" x1="24" y1="28" x2="116" y2="122" gradientUnits="userSpaceOnUse">
      <stop offset="0" stop-color="#7c5cff"/>
      <stop offset="1" stop-color="#4d35d8"/>
    </linearGradient>
    <linearGradient id="nodeB" x1="140" y1="134" x2="234" y2="228" gradientUnits="userSpaceOnUse">
      <stop offset="0" stop-color="#0ea5e9"/>
      <stop offset="1" stop-color="#2563eb"/>
    </linearGradient>
  </defs>

  <path d="M76 122v22c0 18.8 15.2 34 34 34h30" stroke="#6252e8" stroke-width="18" stroke-linecap="round" stroke-linejoin="round"/>
  <rect x="24" y="28" width="94" height="94" rx="22" fill="url(#nodeA)"/>
  <rect x="140" y="134" width="94" height="94" rx="22" fill="url(#nodeB)"/>

  <g transform="translate(36 41) scale(2.72)" stroke="#fff" stroke-width="2.05" stroke-linecap="round" stroke-linejoin="round">
    <path d="m12.296 3.464 3.02 3.956"/>
    <path d="M20.2 6 3 11l-.9-2.4c-.3-1.1.3-2.2 1.3-2.5l13.5-4c1.1-.3 2.2.3 2.5 1.3z"/>
    <path d="M3 11h18v8a2 2 0 0 1-2 2H5a2 2 0 0 1-2-2z"/>
    <path d="m6.18 5.276 3.1 3.899"/>
  </g>

  <g transform="translate(152 147) scale(2.72)" stroke="#fff" stroke-width="2.05" stroke-linecap="round" stroke-linejoin="round">
    <path d="m15 19 2 2 4-4"/>
    <path d="M15 3v5a1 1 0 0 0 1 1h5"/>
    <path d="M21 13V9a2.4 2.4 0 0 0-.706-1.706l-3.588-3.588A2.4 2.4 0 0 0 15 3H5a2 2 0 0 0-2 2v14a2 2 0 0 0 2 2h6.5"/>
  </g>
</svg>
